<svg xmlns="http://www.w3.org/2000/svg" xmlns:xlink="http://www.w3.org/1999/xlink" width="1080" zoomAndPan="magnify" viewBox="0 0 810 1439.999935" height="1920" preserveAspectRatio="xMidYMid meet" version="1.0"><defs><clipPath id="b4a222b5c9"><path d="M 0 0 L 810 0 L 810 386 L 0 386 Z M 0 0 " clip-rule="nonzero"/></clipPath><clipPath id="f8f154ab5d"><path d="M 492.746094 900.75 L -281.066406 219.070312 L 372.355469 -522.664062 L 1146.167969 159.015625 Z M 492.746094 900.75 " clip-rule="nonzero"/></clipPath><clipPath id="f9778b59a0"><path d="M 372.5 -522.757812 L 1146.3125 158.925781 L 492.890625 900.660156 L -280.921875 218.976562 Z M 372.5 -522.757812 " clip-rule="nonzero"/></clipPath><clipPath id="8932c169a8"><path d="M 447 209 L 491 209 L 491 251 L 447 251 Z M 447 209 " clip-rule="nonzero"/></clipPath><clipPath id="76392bcc69"><path d="M 483.738281 463.984375 L -556.09375 24.863281 L -324.714844 -523.035156 L 715.113281 -83.914062 Z M 483.738281 463.984375 " clip-rule="nonzero"/></clipPath><clipPath id="52bed77908"><path d="M -555.921875 24.9375 L 483.910156 464.058594 L 715.285156 -83.839844 L -324.542969 -522.960938 Z M -555.921875 24.9375 " clip-rule="nonzero"/></clipPath><clipPath id="cc45d60e00"><path d="M 103 174 L 133 174 L 133 203 L 103 203 Z M 103 174 " clip-rule="nonzero"/></clipPath><clipPath id="07aa0de479"><path d="M 483.738281 463.984375 L -556.09375 24.863281 L -324.714844 -523.035156 L 715.113281 -83.914062 Z M 483.738281 463.984375 " clip-rule="nonzero"/></clipPath><clipPath id="dbc89c9962"><path d="M -555.921875 24.9375 L 483.910156 464.058594 L 715.285156 -83.839844 L -324.542969 -522.960938 Z M -555.921875 24.9375 " clip-rule="nonzero"/></clipPath><clipPath id="022f9af9c1"><path d="M 206 295 L 213 295 L 213 303 L 206 303 Z M 206 295 " clip-rule="nonzero"/></clipPath><clipPath id="270ab99c4b"><path d="M 483.738281 463.984375 L -556.09375 24.863281 L -324.714844 -523.035156 L 715.113281 -83.914062 Z M 483.738281 463.984375 " clip-rule="nonzero"/></clipPath><clipPath id="337d428be2"><path d="M -555.921875 24.9375 L 483.910156 464.058594 L 715.285156 -83.839844 L -324.542969 -522.960938 Z M -555.921875 24.9375 " clip-rule="nonzero"/></clipPath><clipPath id="157d91da81"><path d="M 251 42 L 256 42 L 256 47 L 251 47 Z M 251 42 " clip-rule="nonzero"/></clipPath><clipPath id="c43711489e"><path d="M 483.738281 463.984375 L -556.09375 24.863281 L -324.714844 -523.035156 L 715.113281 -83.914062 Z M 483.738281 463.984375 " clip-rule="nonzero"/></clipPath><clipPath id="2332dc11b6"><path d="M -555.921875 24.9375 L 483.910156 464.058594 L 715.285156 -83.839844 L -324.542969 -522.960938 Z M -555.921875 24.9375 " clip-rule="nonzero"/></clipPath><clipPath id="d7b2202ef4"><path d="M 491 432 L 496 432 L 496 437 L 491 437 Z M 491 432 " clip-rule="nonzero"/></clipPath><clipPath id="8c37879c52"><path d="M 483.738281 463.984375 L -556.09375 24.863281 L -324.714844 -523.035156 L 715.113281 -83.914062 Z M 483.738281 463.984375 " clip-rule="nonzero"/></clipPath><clipPath id="7fc4760e3d"><path d="M -555.921875 24.9375 L 483.910156 464.058594 L 715.285156 -83.839844 L -324.542969 -522.960938 Z M -555.921875 24.9375 " clip-rule="nonzero"/></clipPath><clipPath id="6316b6b215"><path d="M 570 95 L 582 95 L 582 106 L 570 106 Z M 570 95 " clip-rule="nonzero"/></clipPath><clipPath id="0432d5e129"><path d="M 483.738281 463.984375 L -556.09375 24.863281 L -324.714844 -523.035156 L 715.113281 -83.914062 Z M 483.738281 463.984375 " clip-rule="nonzero"/></clipPath><clipPath id="b0c9a29029"><path d="M -555.921875 24.9375 L 483.910156 464.058594 L 715.285156 -83.839844 L -324.542969 -522.960938 Z M -555.921875 24.9375 " clip-rule="nonzero"/></clipPath><clipPath id="bce3e783a4"><path d="M 666 9 L 673 9 L 673 16 L 666 16 Z M 666 9 " clip-rule="nonzero"/></clipPath><clipPath id="6abc27968b"><path d="M 483.738281 463.984375 L -556.09375 24.863281 L -324.714844 -523.035156 L 715.113281 -83.914062 Z M 483.738281 463.984375 " clip-rule="nonzero"/></clipPath><clipPath id="b9b8b04f4e"><path d="M -555.921875 24.9375 L 483.910156 464.058594 L 715.285156 -83.839844 L -324.542969 -522.960938 Z M -555.921875 24.9375 " clip-rule="nonzero"/></clipPath><clipPath id="8705985e30"><path d="M 553.953125 0 L 810 0 L 810 39.613281 L 553.953125 39.613281 Z M 553.953125 0 " clip-rule="nonzero"/></clipPath><clipPath id="cee6d0ec3b"><path d="M 592.203125 -198.957031 L 884.226562 -198.957031 C 894.371094 -198.957031 904.101562 -194.929688 911.273438 -187.753906 C 918.449219 -180.582031 922.476562 -170.851562 922.476562 -160.707031 L 922.476562 1.054688 C 922.476562 11.199219 918.449219 20.929688 911.273438 28.101562 C 904.101562 35.273438 894.371094 39.304688 884.226562 39.304688 L 592.203125 39.304688 C 582.058594 39.304688 572.328125 35.273438 565.15625 28.101562 C 557.980469 20.929688 553.953125 11.199219 553.953125 1.054688 L 553.953125 -160.707031 C 553.953125 -170.851562 557.980469 -180.582031 565.15625 -187.753906 C 572.328125 -194.929688 582.058594 -198.957031 592.203125 -198.957031 " clip-rule="nonzero"/></clipPath><clipPath id="96611d98b5"><path d="M 0 0 L 181.980469 0 L 181.980469 84.542969 L 0 84.542969 Z M 0 0 " clip-rule="nonzero"/></clipPath><clipPath id="1116256fdb"><path d="M -77.824219 -198.957031 L 143.148438 -198.957031 C 153.292969 -198.957031 163.023438 -194.929688 170.195312 -187.753906 C 177.371094 -180.582031 181.398438 -170.851562 181.398438 -160.707031 L 181.398438 46.054688 C 181.398438 56.199219 177.371094 65.929688 170.195312 73.101562 C 163.023438 80.273438 153.292969 84.304688 143.148438 84.304688 L -77.824219 84.304688 C -87.96875 84.304688 -97.699219 80.273438 -104.871094 73.101562 C -112.042969 65.929688 -116.074219 56.199219 -116.074219 46.054688 L -116.074219 -160.707031 C -116.074219 -170.851562 -112.042969 -180.582031 -104.871094 -187.753906 C -97.699219 -194.929688 -87.96875 -198.957031 -77.824219 -198.957031 " clip-rule="nonzero"/></clipPath><clipPath id="5b016ffa55"><path d="M 32.664062 0 L 330.71875 0 L 330.71875 226 L 32.664062 226 Z M 32.664062 0 " clip-rule="nonzero"/></clipPath><clipPath id="12baaae688"><path d="M 70.914062 -57.328125 L 291.886719 -57.328125 C 302.03125 -57.328125 311.757812 -53.296875 318.933594 -46.125 C 326.105469 -38.949219 330.136719 -29.222656 330.136719 -19.078125 L 330.136719 187.6875 C 330.136719 197.832031 326.105469 207.558594 318.933594 214.734375 C 311.757812 221.90625 302.03125 225.9375 291.886719 225.9375 L 70.914062 225.9375 C 60.769531 225.9375 51.039062 221.90625 43.867188 214.734375 C 36.691406 207.558594 32.664062 197.832031 32.664062 187.6875 L 32.664062 -19.078125 C 32.664062 -29.222656 36.691406 -38.949219 43.867188 -46.125 C 51.039062 -53.296875 60.769531 -57.328125 70.914062 -57.328125 " clip-rule="nonzero"/></clipPath></defs><g clip-path="url(#b4a222b5c9)"><g clip-path="url(#f8f154ab5d)"><g clip-path="url(#f9778b59a0)"><path fill="#4281c8" d="M -259.441406 218.953125 C -219.539062 154.269531 -171.398438 94.652344 -116.296875 42.046875 C 47.34375 -145.703125 211.234375 -333.234375 385.757812 -510.957031 C 626.679688 -280.328125 888.792969 -53.363281 1142.125 163.675781 C 1096.398438 213.597656 1041.917969 246.605469 975.316406 261.058594 C 952.578125 265.988281 929.449219 268.382812 906.457031 265.644531 C 839.589844 257.53125 775.433594 204.078125 711.652344 226.269531 C 658.332031 244.539062 635.035156 306.777344 592.6875 343.910156 C 556.757812 375.746094 506.824219 388.679688 459.078125 384.714844 C 411.328125 380.746094 365.859375 361.269531 326.191406 334.207031 C 290.660156 309.910156 256.324219 278.789062 213.492188 275.210938 C 165.035156 271.054688 122.117188 302.867188 78.03125 323.582031 C -37.945312 378.171875 -172.855469 314.058594 -259.441406 218.953125 Z M -259.441406 218.953125 " fill-opacity="1" fill-rule="nonzero"/></g></g></g><g clip-path="url(#8932c169a8)"><g clip-path="url(#76392bcc69)"><g clip-path="url(#52bed77908)"><path fill="#f8fbf8" d="M 488.636719 238.511719 C 488.898438 237.898438 489.125 237.273438 489.316406 236.636719 C 489.511719 235.996094 489.671875 235.351562 489.800781 234.695312 C 489.925781 234.039062 490.019531 233.378906 490.078125 232.710938 C 490.140625 232.046875 490.164062 231.375 490.152344 230.703125 C 490.144531 230.03125 490.101562 229.359375 490.023438 228.6875 C 489.945312 228.019531 489.832031 227.351562 489.6875 226.6875 C 489.539062 226.027344 489.359375 225.371094 489.148438 224.722656 C 488.9375 224.074219 488.691406 223.433594 488.414062 222.804688 C 488.136719 222.179688 487.832031 221.5625 487.492188 220.960938 C 487.152344 220.359375 486.785156 219.773438 486.390625 219.203125 C 485.992188 218.636719 485.566406 218.085938 485.117188 217.554688 C 484.664062 217.023438 484.1875 216.511719 483.6875 216.023438 C 483.183594 215.535156 482.660156 215.070312 482.113281 214.628906 C 481.566406 214.1875 480.996094 213.773438 480.410156 213.382812 C 479.824219 212.996094 479.21875 212.632812 478.597656 212.300781 C 477.972656 211.964844 477.335938 211.660156 476.6875 211.386719 C 476.035156 211.113281 475.375 210.867188 474.703125 210.65625 C 474.027344 210.441406 473.347656 210.261719 472.660156 210.109375 C 471.972656 209.960938 471.277344 209.84375 470.578125 209.757812 C 469.882812 209.675781 469.183594 209.621094 468.484375 209.601562 C 467.78125 209.585938 467.085938 209.597656 466.390625 209.644531 C 465.691406 209.691406 465.003906 209.773438 464.316406 209.882812 C 463.632812 209.996094 462.957031 210.140625 462.289062 210.320312 C 461.621094 210.496094 460.96875 210.703125 460.324219 210.945312 C 459.679688 211.183594 459.050781 211.453125 458.4375 211.753906 C 457.824219 212.054688 457.230469 212.382812 456.652344 212.738281 C 456.078125 213.097656 455.519531 213.480469 454.984375 213.894531 C 454.449219 214.304688 453.9375 214.742188 453.449219 215.203125 C 452.960938 215.664062 452.5 216.148438 452.0625 216.65625 C 451.625 217.164062 451.21875 217.691406 450.835938 218.242188 C 450.453125 218.789062 450.105469 219.355469 449.78125 219.9375 C 449.460938 220.523438 449.167969 221.121094 448.910156 221.734375 C 448.652344 222.347656 448.425781 222.976562 448.230469 223.613281 C 448.035156 224.25 447.875 224.898438 447.75 225.550781 C 447.621094 226.207031 447.527344 226.867188 447.46875 227.535156 C 447.410156 228.203125 447.386719 228.871094 447.394531 229.542969 C 447.402344 230.214844 447.449219 230.886719 447.527344 231.558594 C 447.605469 232.230469 447.714844 232.894531 447.863281 233.558594 C 448.007812 234.222656 448.1875 234.878906 448.398438 235.527344 C 448.613281 236.175781 448.855469 236.8125 449.132812 237.441406 C 449.410156 238.070312 449.71875 238.683594 450.054688 239.285156 C 450.394531 239.886719 450.761719 240.472656 451.160156 241.042969 C 451.554688 241.613281 451.980469 242.164062 452.433594 242.695312 C 452.882812 243.226562 453.359375 243.734375 453.863281 244.226562 C 454.363281 244.714844 454.890625 245.179688 455.4375 245.621094 C 455.984375 246.058594 456.550781 246.476562 457.136719 246.863281 C 457.726562 247.253906 458.332031 247.613281 458.953125 247.949219 C 459.574219 248.28125 460.210938 248.585938 460.863281 248.859375 C 461.511719 249.136719 462.171875 249.378906 462.847656 249.59375 C 463.519531 249.804688 464.199219 249.988281 464.890625 250.136719 C 465.578125 250.289062 466.269531 250.40625 466.96875 250.488281 C 467.667969 250.574219 468.363281 250.625 469.066406 250.644531 C 469.765625 250.664062 470.464844 250.648438 471.160156 250.601562 C 471.855469 250.554688 472.546875 250.476562 473.230469 250.363281 C 473.914062 250.25 474.589844 250.105469 475.257812 249.929688 C 475.925781 249.753906 476.582031 249.542969 477.226562 249.304688 C 477.867188 249.066406 478.496094 248.796875 479.109375 248.496094 C 479.722656 248.195312 480.316406 247.867188 480.894531 247.507812 C 481.472656 247.152344 482.027344 246.765625 482.5625 246.355469 C 483.097656 245.941406 483.609375 245.507812 484.097656 245.042969 C 484.585938 244.582031 485.046875 244.097656 485.484375 243.589844 C 485.921875 243.082031 486.332031 242.554688 486.710938 242.007812 C 487.09375 241.457031 487.445312 240.890625 487.765625 240.308594 C 488.089844 239.726562 488.378906 239.125 488.636719 238.511719 Z M 488.636719 238.511719 " fill-opacity="1" fill-rule="nonzero"/></g></g></g><g clip-path="url(#cc45d60e00)"><g clip-path="url(#07aa0de479)"><g clip-path="url(#dbc89c9962)"><path fill="#f8fbf8" d="M 131.476562 194.078125 C 131.824219 193.261719 132.078125 192.417969 132.25 191.546875 C 132.417969 190.671875 132.492188 189.789062 132.480469 188.894531 C 132.464844 188 132.359375 187.109375 132.164062 186.226562 C 131.96875 185.34375 131.683594 184.484375 131.3125 183.648438 C 130.941406 182.808594 130.492188 182.011719 129.960938 181.253906 C 129.429688 180.492188 128.828125 179.789062 128.15625 179.136719 C 127.484375 178.484375 126.753906 177.898438 125.96875 177.378906 C 125.183594 176.859375 124.359375 176.417969 123.488281 176.050781 C 122.617188 175.683594 121.722656 175.398438 120.804688 175.199219 C 119.882812 174.996094 118.957031 174.882812 118.019531 174.855469 C 117.085938 174.828125 116.160156 174.890625 115.246094 175.039062 C 114.332031 175.1875 113.445312 175.421875 112.585938 175.738281 C 111.726562 176.054688 110.914062 176.453125 110.144531 176.925781 C 109.375 177.402344 108.664062 177.945312 108.011719 178.5625 C 107.359375 179.175781 106.78125 179.847656 106.273438 180.574219 C 105.765625 181.304688 105.339844 182.078125 104.992188 182.894531 C 104.648438 183.710938 104.390625 184.554688 104.222656 185.429688 C 104.054688 186.300781 103.976562 187.183594 103.992188 188.078125 C 104.003906 188.976562 104.109375 189.863281 104.308594 190.746094 C 104.503906 191.628906 104.785156 192.492188 105.15625 193.328125 C 105.527344 194.164062 105.980469 194.960938 106.511719 195.722656 C 107.042969 196.480469 107.644531 197.1875 108.316406 197.835938 C 108.988281 198.488281 109.714844 199.074219 110.5 199.59375 C 111.285156 200.113281 112.113281 200.558594 112.984375 200.925781 C 113.851562 201.292969 114.746094 201.574219 115.667969 201.777344 C 116.585938 201.976562 117.515625 202.089844 118.449219 202.117188 C 119.386719 202.144531 120.3125 202.082031 121.226562 201.933594 C 122.140625 201.785156 123.027344 201.554688 123.886719 201.234375 C 124.742188 200.917969 125.558594 200.523438 126.328125 200.046875 C 127.097656 199.570312 127.808594 199.027344 128.460938 198.414062 C 129.109375 197.800781 129.691406 197.128906 130.199219 196.398438 C 130.707031 195.667969 131.132812 194.894531 131.476562 194.078125 Z M 131.476562 194.078125 " fill-opacity="1" fill-rule="nonzero"/></g></g></g><g clip-path="url(#022f9af9c1)"><g clip-path="url(#270ab99c4b)"><g clip-path="url(#337d428be2)"><path fill="#f8fbf8" d="M 212.730469 300.433594 C 212.90625 300.015625 212.996094 299.578125 213 299.125 C 213 298.671875 212.917969 298.234375 212.746094 297.816406 C 212.578125 297.394531 212.332031 297.023438 212.015625 296.703125 C 211.695312 296.378906 211.328125 296.128906 210.910156 295.953125 C 210.492188 295.777344 210.058594 295.6875 209.605469 295.683594 C 209.148438 295.679688 208.714844 295.765625 208.292969 295.933594 C 207.875 296.105469 207.503906 296.351562 207.179688 296.667969 C 206.855469 296.988281 206.605469 297.355469 206.429688 297.773438 C 206.253906 298.191406 206.164062 298.625 206.160156 299.078125 C 206.160156 299.53125 206.242188 299.96875 206.414062 300.390625 C 206.582031 300.808594 206.828125 301.179688 207.144531 301.503906 C 207.464844 301.828125 207.832031 302.078125 208.25 302.253906 C 208.667969 302.429688 209.101562 302.519531 209.554688 302.523438 C 210.007812 302.523438 210.445312 302.441406 210.867188 302.269531 C 211.285156 302.101562 211.65625 301.855469 211.980469 301.535156 C 212.304688 301.21875 212.550781 300.851562 212.730469 300.433594 Z M 212.730469 300.433594 " fill-opacity="1" fill-rule="nonzero"/></g></g></g><g clip-path="url(#157d91da81)"><g clip-path="url(#c43711489e)"><g clip-path="url(#2332dc11b6)"><path fill="#f8fbf8" d="M 255.671875 45.535156 C 255.796875 45.246094 255.855469 44.945312 255.859375 44.632812 C 255.863281 44.316406 255.804688 44.015625 255.683594 43.722656 C 255.566406 43.433594 255.398438 43.175781 255.175781 42.953125 C 254.957031 42.730469 254.703125 42.554688 254.414062 42.433594 C 254.125 42.3125 253.824219 42.25 253.507812 42.246094 C 253.195312 42.246094 252.894531 42.304688 252.601562 42.421875 C 252.3125 42.539062 252.054688 42.710938 251.832031 42.929688 C 251.605469 43.148438 251.433594 43.40625 251.3125 43.695312 C 251.191406 43.984375 251.128906 44.285156 251.125 44.597656 C 251.125 44.914062 251.183594 45.214844 251.300781 45.503906 C 251.417969 45.796875 251.585938 46.054688 251.808594 46.277344 C 252.027344 46.5 252.28125 46.671875 252.570312 46.796875 C 252.859375 46.917969 253.164062 46.980469 253.476562 46.980469 C 253.789062 46.984375 254.09375 46.925781 254.382812 46.808594 C 254.675781 46.691406 254.929688 46.519531 255.15625 46.300781 C 255.378906 46.078125 255.550781 45.824219 255.671875 45.535156 Z M 255.671875 45.535156 " fill-opacity="1" fill-rule="nonzero"/></g></g></g><g clip-path="url(#d7b2202ef4)"><g clip-path="url(#8c37879c52)"><g clip-path="url(#7fc4760e3d)"><path fill="#f8fbf8" d="M 495.699219 435.15625 C 495.796875 434.921875 495.847656 434.675781 495.851562 434.421875 C 495.851562 434.164062 495.804688 433.917969 495.707031 433.679688 C 495.613281 433.445312 495.472656 433.234375 495.292969 433.054688 C 495.113281 432.871094 494.90625 432.730469 494.671875 432.628906 C 494.4375 432.53125 494.191406 432.480469 493.933594 432.480469 C 493.679688 432.476562 493.433594 432.523438 493.195312 432.621094 C 492.960938 432.71875 492.75 432.855469 492.566406 433.035156 C 492.386719 433.214844 492.246094 433.421875 492.144531 433.65625 C 492.046875 433.894531 491.996094 434.136719 491.992188 434.394531 C 491.992188 434.648438 492.039062 434.894531 492.136719 435.132812 C 492.230469 435.371094 492.367188 435.578125 492.546875 435.761719 C 492.726562 435.945312 492.9375 436.085938 493.171875 436.183594 C 493.40625 436.285156 493.652344 436.335938 493.90625 436.335938 C 494.164062 436.335938 494.410156 436.289062 494.648438 436.195312 C 494.882812 436.097656 495.09375 435.960938 495.277344 435.78125 C 495.457031 435.601562 495.597656 435.394531 495.699219 435.15625 Z M 495.699219 435.15625 " fill-opacity="1" fill-rule="nonzero"/></g></g></g><g clip-path="url(#6316b6b215)"><g clip-path="url(#0432d5e129)"><g clip-path="url(#b0c9a29029)"><path fill="#f8fbf8" d="M 580.625 102.253906 C 580.757812 101.9375 580.855469 101.617188 580.925781 101.285156 C 580.992188 100.949219 581.027344 100.613281 581.03125 100.277344 C 581.035156 99.9375 581.003906 99.597656 580.9375 99.265625 C 580.875 98.933594 580.777344 98.609375 580.652344 98.292969 C 580.523438 97.980469 580.367188 97.679688 580.179688 97.394531 C 579.992188 97.113281 579.78125 96.851562 579.542969 96.609375 C 579.304688 96.367188 579.042969 96.148438 578.761719 95.960938 C 578.480469 95.769531 578.183594 95.605469 577.871094 95.476562 C 577.558594 95.34375 577.238281 95.242188 576.902344 95.175781 C 576.570312 95.105469 576.234375 95.070312 575.894531 95.066406 C 575.554688 95.066406 575.21875 95.097656 574.886719 95.160156 C 574.550781 95.222656 574.230469 95.320312 573.914062 95.449219 C 573.597656 95.574219 573.300781 95.734375 573.015625 95.921875 C 572.734375 96.105469 572.46875 96.320312 572.226562 96.558594 C 571.988281 96.796875 571.769531 97.054688 571.578125 97.335938 C 571.390625 97.617188 571.226562 97.914062 571.097656 98.226562 C 570.964844 98.542969 570.863281 98.863281 570.792969 99.195312 C 570.726562 99.527344 570.691406 99.867188 570.6875 100.203125 C 570.6875 100.542969 570.714844 100.882812 570.78125 101.214844 C 570.84375 101.546875 570.941406 101.871094 571.066406 102.1875 C 571.195312 102.5 571.351562 102.800781 571.539062 103.085938 C 571.726562 103.367188 571.9375 103.628906 572.175781 103.871094 C 572.414062 104.113281 572.675781 104.332031 572.957031 104.519531 C 573.238281 104.710938 573.535156 104.875 573.847656 105.003906 C 574.160156 105.136719 574.484375 105.238281 574.816406 105.304688 C 575.148438 105.375 575.484375 105.410156 575.824219 105.414062 C 576.164062 105.414062 576.5 105.382812 576.832031 105.320312 C 577.167969 105.257812 577.492188 105.160156 577.804688 105.03125 C 578.121094 104.90625 578.417969 104.746094 578.703125 104.558594 C 578.988281 104.375 579.25 104.160156 579.492188 103.921875 C 579.734375 103.683594 579.949219 103.425781 580.140625 103.144531 C 580.332031 102.863281 580.492188 102.566406 580.625 102.253906 Z M 580.625 102.253906 " fill-opacity="1" fill-rule="nonzero"/></g></g></g><g clip-path="url(#bce3e783a4)"><g clip-path="url(#6abc27968b)"><g clip-path="url(#b9b8b04f4e)"><path fill="#f8fbf8" d="M 672.042969 13.523438 C 672.1875 13.183594 672.261719 12.824219 672.261719 12.453125 C 672.265625 12.082031 672.195312 11.722656 672.054688 11.378906 C 671.917969 11.035156 671.714844 10.730469 671.453125 10.464844 C 671.195312 10.199219 670.890625 9.996094 670.550781 9.851562 C 670.207031 9.703125 669.847656 9.632812 669.476562 9.628906 C 669.105469 9.625 668.746094 9.695312 668.402344 9.835938 C 668.058594 9.976562 667.753906 10.175781 667.488281 10.4375 C 667.222656 10.699219 667.019531 11 666.875 11.34375 C 666.730469 11.6875 666.65625 12.042969 666.652344 12.414062 C 666.648438 12.785156 666.71875 13.144531 666.859375 13.488281 C 667 13.835938 667.199219 14.140625 667.460938 14.402344 C 667.722656 14.667969 668.023438 14.875 668.367188 15.019531 C 668.707031 15.164062 669.066406 15.238281 669.4375 15.238281 C 669.808594 15.242188 670.167969 15.171875 670.511719 15.035156 C 670.859375 14.894531 671.164062 14.691406 671.425781 14.429688 C 671.691406 14.171875 671.898438 13.867188 672.042969 13.523438 Z M 672.042969 13.523438 " fill-opacity="1" fill-rule="nonzero"/></g></g></g><g clip-path="url(#8705985e30)"><g clip-path="url(#cee6d0ec3b)"><path fill="#4281c8" d="M 553.953125 -198.957031 L 922.25 -198.957031 L 922.25 39.613281 L 553.953125 39.613281 Z M 553.953125 -198.957031 " fill-opacity="1" fill-rule="nonzero"/></g></g><g clip-path="url(#96611d98b5)"><g clip-path="url(#1116256fdb)"><path fill="#4281c8" d="M -116.074219 -198.957031 L 181.347656 -198.957031 L 181.347656 84.542969 L -116.074219 84.542969 Z M -116.074219 -198.957031 " fill-opacity="1" fill-rule="nonzero"/></g></g><g clip-path="url(#5b016ffa55)"><g clip-path="url(#12baaae688)"><path fill="#4281c8" d="M 32.664062 -57.328125 L 330.085938 -57.328125 L 330.085938 226.171875 L 32.664062 226.171875 Z M 32.664062 -57.328125 " fill-opacity="1" fill-rule="nonzero"/></g></g></svg>