<svg xmlns="http://www.w3.org/2000/svg" xmlns:xlink="http://www.w3.org/1999/xlink" width="1080" zoomAndPan="magnify" viewBox="0 0 810 1439.999935" height="1920" preserveAspectRatio="xMidYMid meet" version="1.0"><defs><clipPath id="ff07714788"><path d="M 63 659 L 69 659 L 69 664.664062 L 63 664.664062 Z M 63 659 " clip-rule="nonzero"/></clipPath><clipPath id="b384cb92f1"><path d="M 482 69.914062 L 489 69.914062 L 489 76 L 482 76 Z M 482 69.914062 " clip-rule="nonzero"/></clipPath><clipPath id="7c6c0506f9"><path d="M 608 1159 L 810 1159 L 810 1440 L 608 1440 Z M 608 1159 " clip-rule="nonzero"/></clipPath><clipPath id="d97f54f1af"><path d="M 1037.089844 1522.246094 L 635.710938 1599.519531 L 562.125 1217.289062 L 963.503906 1140.015625 Z M 1037.089844 1522.246094 " clip-rule="nonzero"/></clipPath><clipPath id="b36fa819dc"><path d="M 1037.089844 1522.246094 L 635.710938 1599.519531 L 562.125 1217.289062 L 963.503906 1140.015625 Z M 1037.089844 1522.246094 " clip-rule="nonzero"/></clipPath><clipPath id="4026c095fa"><path d="M 536 863.398438 L 542 863.398438 L 542 869 L 536 869 Z M 536 863.398438 " clip-rule="nonzero"/></clipPath></defs><rect x="-81" width="972" fill="#ffffff" y="-143.999994" height="1727.999922" fill-opacity="1"/><rect x="-81" width="972" fill="#ffffff" y="-143.999994" height="1727.999922" fill-opacity="1"/><rect x="-81" width="972" fill="#4f9ef8" y="-143.999994" height="1727.999922" fill-opacity="1"/><path fill="#4281c8" d="M -39.824219 705.496094 C -52.378906 632.058594 -55.601562 557.015625 -49.160156 482.613281 C -50.449219 238.476562 -51.414062 -5.664062 -38.214844 -249.480469 C 288.234375 -235.953125 627.878906 -238.851562 954.648438 -243.359375 C 953.363281 -177.011719 934.691406 -117.425781 895.089844 -63.636719 C 881.570312 -45.28125 866.117188 -28.53125 847.445312 -15.648438 C 793.035156 21.714844 711.261719 23.96875 678.746094 81.621094 C 651.382812 129.609375 674.5625 190.484375 667.480469 245.238281 C 661.683594 291.941406 633.351562 333.8125 595.6875 361.832031 C 558.019531 389.855469 511.980469 404.992188 465.300781 410.789062 C 423.449219 415.941406 378.054688 415.296875 344.25 440.421875 C 305.941406 468.765625 294.992188 519.976562 276 563.777344 C 226.097656 679.082031 85.410156 719.34375 -39.824219 705.496094 Z M -39.824219 705.496094 " fill-opacity="1" fill-rule="nonzero"/><path fill="#4281c8" d="M 818.261719 455.046875 C 818.261719 454.378906 818.226562 453.714844 818.15625 453.050781 C 818.089844 452.390625 817.984375 451.730469 817.847656 451.078125 C 817.710938 450.425781 817.539062 449.777344 817.332031 449.140625 C 817.128906 448.503906 816.890625 447.878906 816.621094 447.261719 C 816.351562 446.648438 816.046875 446.046875 815.714844 445.457031 C 815.382812 444.871094 815.019531 444.300781 814.628906 443.746094 C 814.234375 443.191406 813.816406 442.65625 813.367188 442.140625 C 812.917969 441.628906 812.445312 441.132812 811.945312 440.664062 C 811.445312 440.191406 810.925781 439.746094 810.378906 439.324219 C 809.832031 438.902344 809.265625 438.503906 808.679688 438.132812 C 808.09375 437.765625 807.488281 437.421875 806.863281 437.109375 C 806.242188 436.792969 805.605469 436.507812 804.953125 436.253906 C 804.296875 436 803.632812 435.777344 802.957031 435.582031 C 802.285156 435.390625 801.597656 435.226562 800.90625 435.097656 C 800.214844 434.96875 799.515625 434.871094 798.8125 434.804688 C 798.109375 434.738281 797.40625 434.707031 796.699219 434.707031 C 795.992188 434.707031 795.289062 434.738281 794.585938 434.804688 C 793.882812 434.871094 793.1875 434.96875 792.492188 435.097656 C 791.800781 435.226562 791.117188 435.390625 790.441406 435.582031 C 789.765625 435.777344 789.101562 436 788.449219 436.253906 C 787.796875 436.507812 787.15625 436.792969 786.535156 437.109375 C 785.914062 437.421875 785.308594 437.765625 784.71875 438.132812 C 784.132812 438.503906 783.566406 438.902344 783.019531 439.324219 C 782.476562 439.746094 781.953125 440.191406 781.453125 440.664062 C 780.953125 441.132812 780.480469 441.628906 780.03125 442.140625 C 779.582031 442.65625 779.164062 443.191406 778.769531 443.746094 C 778.378906 444.300781 778.015625 444.871094 777.683594 445.457031 C 777.351562 446.046875 777.050781 446.648438 776.777344 447.261719 C 776.507812 447.878906 776.269531 448.503906 776.066406 449.140625 C 775.859375 449.777344 775.6875 450.425781 775.550781 451.078125 C 775.414062 451.730469 775.3125 452.390625 775.242188 453.050781 C 775.171875 453.714844 775.136719 454.378906 775.136719 455.046875 C 775.136719 455.710938 775.171875 456.375 775.242188 457.039062 C 775.3125 457.703125 775.414062 458.359375 775.550781 459.015625 C 775.6875 459.667969 775.859375 460.3125 776.066406 460.949219 C 776.269531 461.585938 776.507812 462.214844 776.777344 462.828125 C 777.050781 463.445312 777.351562 464.046875 777.683594 464.632812 C 778.015625 465.222656 778.378906 465.792969 778.769531 466.34375 C 779.164062 466.898438 779.582031 467.433594 780.03125 467.949219 C 780.480469 468.464844 780.953125 468.957031 781.453125 469.429688 C 781.953125 469.898438 782.476562 470.34375 783.019531 470.769531 C 783.566406 471.191406 784.132812 471.585938 784.71875 471.957031 C 785.308594 472.328125 785.914062 472.667969 786.535156 472.984375 C 787.15625 473.296875 787.796875 473.582031 788.449219 473.835938 C 789.101562 474.089844 789.765625 474.316406 790.441406 474.507812 C 791.117188 474.703125 791.800781 474.863281 792.492188 474.996094 C 793.1875 475.125 793.882812 475.222656 794.585938 475.285156 C 795.289062 475.351562 795.992188 475.386719 796.699219 475.386719 C 797.40625 475.386719 798.109375 475.351562 798.8125 475.285156 C 799.515625 475.222656 800.214844 475.125 800.90625 474.996094 C 801.597656 474.863281 802.285156 474.703125 802.957031 474.507812 C 803.632812 474.316406 804.296875 474.089844 804.953125 473.835938 C 805.605469 473.582031 806.242188 473.296875 806.863281 472.984375 C 807.488281 472.667969 808.09375 472.328125 808.679688 471.957031 C 809.265625 471.585938 809.832031 471.191406 810.378906 470.769531 C 810.925781 470.34375 811.445312 469.898438 811.945312 469.429688 C 812.445312 468.957031 812.917969 468.464844 813.367188 467.949219 C 813.816406 467.433594 814.234375 466.898438 814.628906 466.34375 C 815.019531 465.792969 815.382812 465.222656 815.714844 464.632812 C 816.046875 464.046875 816.351562 463.445312 816.621094 462.828125 C 816.890625 462.214844 817.128906 461.585938 817.332031 460.949219 C 817.539062 460.3125 817.710938 459.667969 817.847656 459.015625 C 817.984375 458.359375 818.089844 457.703125 818.15625 457.039062 C 818.226562 456.375 818.261719 455.710938 818.261719 455.046875 Z M 818.261719 455.046875 " fill-opacity="1" fill-rule="nonzero"/><path fill="#4281c8" d="M 471.953125 553.058594 C 471.953125 552.171875 471.859375 551.296875 471.675781 550.425781 C 471.492188 549.558594 471.21875 548.710938 470.859375 547.894531 C 470.496094 547.074219 470.054688 546.296875 469.527344 545.558594 C 469.003906 544.824219 468.410156 544.140625 467.742188 543.511719 C 467.074219 542.886719 466.347656 542.328125 465.5625 541.835938 C 464.777344 541.34375 463.949219 540.925781 463.078125 540.585938 C 462.207031 540.246094 461.308594 539.992188 460.382812 539.820312 C 459.457031 539.644531 458.519531 539.558594 457.578125 539.558594 C 456.632812 539.558594 455.699219 539.644531 454.773438 539.820312 C 453.847656 539.992188 452.949219 540.246094 452.074219 540.585938 C 451.203125 540.925781 450.375 541.34375 449.589844 541.835938 C 448.804688 542.328125 448.078125 542.886719 447.414062 543.511719 C 446.746094 544.140625 446.148438 544.824219 445.625 545.558594 C 445.101562 546.296875 444.65625 547.074219 444.296875 547.894531 C 443.933594 548.710938 443.664062 549.558594 443.476562 550.425781 C 443.292969 551.296875 443.203125 552.171875 443.203125 553.058594 C 443.203125 553.945312 443.292969 554.824219 443.476562 555.695312 C 443.664062 556.5625 443.933594 557.40625 444.296875 558.226562 C 444.65625 559.046875 445.101562 559.824219 445.625 560.5625 C 446.148438 561.296875 446.746094 561.980469 447.414062 562.605469 C 448.078125 563.234375 448.804688 563.792969 449.589844 564.285156 C 450.375 564.777344 451.203125 565.195312 452.074219 565.535156 C 452.949219 565.871094 453.847656 566.128906 454.773438 566.300781 C 455.699219 566.476562 456.632812 566.5625 457.578125 566.5625 C 458.519531 566.5625 459.457031 566.476562 460.382812 566.300781 C 461.308594 566.128906 462.207031 565.871094 463.078125 565.535156 C 463.949219 565.195312 464.777344 564.777344 465.5625 564.285156 C 466.347656 563.792969 467.074219 563.234375 467.742188 562.605469 C 468.410156 561.980469 469.003906 561.296875 469.527344 560.5625 C 470.054688 559.824219 470.496094 559.046875 470.859375 558.226562 C 471.21875 557.40625 471.492188 556.5625 471.675781 555.695312 C 471.859375 554.824219 471.953125 553.945312 471.953125 553.058594 Z M 471.953125 553.058594 " fill-opacity="1" fill-rule="nonzero"/><path fill="#4281c8" d="M 330.21875 654.757812 C 330.21875 654.480469 330.191406 654.207031 330.140625 653.9375 C 330.085938 653.664062 330.003906 653.402344 329.898438 653.144531 C 329.792969 652.890625 329.664062 652.648438 329.511719 652.417969 C 329.355469 652.1875 329.183594 651.976562 328.988281 651.78125 C 328.792969 651.585938 328.578125 651.410156 328.351562 651.257812 C 328.121094 651.105469 327.878906 650.976562 327.621094 650.867188 C 327.367188 650.761719 327.105469 650.683594 326.832031 650.628906 C 326.5625 650.574219 326.289062 650.546875 326.011719 650.546875 C 325.734375 650.546875 325.460938 650.574219 325.191406 650.628906 C 324.921875 650.683594 324.65625 650.761719 324.402344 650.867188 C 324.148438 650.976562 323.90625 651.105469 323.675781 651.257812 C 323.445312 651.410156 323.234375 651.585938 323.039062 651.78125 C 322.84375 651.976562 322.667969 652.1875 322.515625 652.417969 C 322.359375 652.648438 322.230469 652.890625 322.125 653.144531 C 322.019531 653.402344 321.941406 653.664062 321.886719 653.9375 C 321.832031 654.207031 321.804688 654.480469 321.804688 654.757812 C 321.804688 655.03125 321.832031 655.308594 321.886719 655.578125 C 321.941406 655.847656 322.019531 656.113281 322.125 656.367188 C 322.230469 656.621094 322.359375 656.863281 322.515625 657.09375 C 322.667969 657.324219 322.84375 657.535156 323.039062 657.734375 C 323.234375 657.929688 323.445312 658.101562 323.675781 658.253906 C 323.90625 658.410156 324.148438 658.539062 324.402344 658.644531 C 324.65625 658.75 324.921875 658.832031 325.191406 658.882812 C 325.460938 658.9375 325.734375 658.964844 326.011719 658.964844 C 326.289062 658.964844 326.5625 658.9375 326.832031 658.882812 C 327.105469 658.832031 327.367188 658.75 327.621094 658.644531 C 327.878906 658.539062 328.121094 658.410156 328.351562 658.253906 C 328.578125 658.101562 328.792969 657.929688 328.988281 657.734375 C 329.183594 657.535156 329.355469 657.324219 329.511719 657.09375 C 329.664062 656.863281 329.792969 656.621094 329.898438 656.367188 C 330.003906 656.113281 330.085938 655.847656 330.140625 655.578125 C 330.191406 655.308594 330.21875 655.03125 330.21875 654.757812 Z M 330.21875 654.757812 " fill-opacity="1" fill-rule="nonzero"/><path fill="#4281c8" d="M 588.175781 619.425781 C 588.175781 618.972656 588.089844 618.535156 587.917969 618.117188 C 587.742188 617.699219 587.496094 617.328125 587.175781 617.007812 C 586.855469 616.6875 586.484375 616.441406 586.066406 616.265625 C 585.648438 616.09375 585.210938 616.007812 584.757812 616.007812 C 584.304688 616.007812 583.871094 616.09375 583.449219 616.265625 C 583.03125 616.441406 582.664062 616.6875 582.339844 617.007812 C 582.019531 617.328125 581.773438 617.699219 581.601562 618.117188 C 581.425781 618.535156 581.339844 618.972656 581.339844 619.425781 C 581.339844 619.878906 581.425781 620.316406 581.601562 620.734375 C 581.773438 621.152344 582.019531 621.523438 582.339844 621.84375 C 582.664062 622.164062 583.03125 622.410156 583.449219 622.585938 C 583.871094 622.757812 584.304688 622.84375 584.757812 622.84375 C 585.210938 622.84375 585.648438 622.757812 586.066406 622.585938 C 586.484375 622.410156 586.855469 622.164062 587.175781 621.84375 C 587.496094 621.523438 587.742188 621.152344 587.917969 620.734375 C 588.089844 620.316406 588.175781 619.878906 588.175781 619.425781 Z M 588.175781 619.425781 " fill-opacity="1" fill-rule="nonzero"/><path fill="#4281c8" d="M 528.574219 367.902344 C 528.574219 367.589844 528.515625 367.285156 528.394531 366.996094 C 528.273438 366.707031 528.101562 366.449219 527.882812 366.226562 C 527.660156 366.007812 527.402344 365.835938 527.113281 365.714844 C 526.824219 365.59375 526.523438 365.535156 526.207031 365.535156 C 525.894531 365.535156 525.59375 365.59375 525.300781 365.714844 C 525.011719 365.835938 524.757812 366.007812 524.535156 366.226562 C 524.3125 366.449219 524.140625 366.707031 524.023438 366.996094 C 523.902344 367.285156 523.839844 367.589844 523.839844 367.902344 C 523.839844 368.214844 523.902344 368.519531 524.023438 368.808594 C 524.140625 369.097656 524.3125 369.355469 524.535156 369.574219 C 524.757812 369.796875 525.011719 369.96875 525.300781 370.089844 C 525.59375 370.210938 525.894531 370.269531 526.207031 370.269531 C 526.523438 370.269531 526.824219 370.210938 527.113281 370.089844 C 527.402344 369.96875 527.660156 369.796875 527.882812 369.574219 C 528.101562 369.355469 528.273438 369.097656 528.394531 368.808594 C 528.515625 368.519531 528.574219 368.214844 528.574219 367.902344 Z M 528.574219 367.902344 " fill-opacity="1" fill-rule="nonzero"/><path fill="#4281c8" d="M 204.441406 446.542969 C 204.441406 446.148438 204.363281 445.765625 204.214844 445.402344 C 204.0625 445.035156 203.847656 444.714844 203.566406 444.433594 C 203.289062 444.15625 202.964844 443.9375 202.601562 443.789062 C 202.234375 443.636719 201.855469 443.5625 201.460938 443.5625 C 201.066406 443.5625 200.683594 443.636719 200.320312 443.789062 C 199.953125 443.9375 199.632812 444.15625 199.351562 444.433594 C 199.074219 444.714844 198.859375 445.035156 198.707031 445.402344 C 198.554688 445.765625 198.480469 446.148438 198.480469 446.542969 C 198.480469 446.9375 198.554688 447.316406 198.707031 447.683594 C 198.859375 448.046875 199.074219 448.371094 199.351562 448.648438 C 199.632812 448.929688 199.953125 449.144531 200.320312 449.296875 C 200.683594 449.445312 201.066406 449.523438 201.460938 449.523438 C 201.855469 449.523438 202.234375 449.445312 202.601562 449.296875 C 202.964844 449.144531 203.289062 448.929688 203.566406 448.648438 C 203.847656 448.371094 204.0625 448.046875 204.214844 447.683594 C 204.363281 447.316406 204.441406 446.9375 204.441406 446.542969 Z M 204.441406 446.542969 " fill-opacity="1" fill-rule="nonzero"/><g clip-path="url(#ff07714788)"><path fill="#4281c8" d="M 68.84375 661.859375 C 68.84375 661.484375 68.773438 661.128906 68.628906 660.785156 C 68.488281 660.441406 68.285156 660.136719 68.023438 659.875 C 67.757812 659.609375 67.457031 659.410156 67.113281 659.265625 C 66.769531 659.125 66.410156 659.050781 66.039062 659.050781 C 65.667969 659.050781 65.308594 659.125 64.964844 659.265625 C 64.621094 659.410156 64.320312 659.609375 64.054688 659.875 C 63.792969 660.136719 63.589844 660.441406 63.449219 660.785156 C 63.304688 661.128906 63.234375 661.484375 63.234375 661.859375 C 63.234375 662.230469 63.304688 662.589844 63.449219 662.933594 C 63.589844 663.273438 63.792969 663.578125 64.054688 663.84375 C 64.320312 664.105469 64.621094 664.308594 64.964844 664.449219 C 65.308594 664.59375 65.667969 664.664062 66.039062 664.664062 C 66.410156 664.664062 66.769531 664.59375 67.113281 664.449219 C 67.457031 664.308594 67.757812 664.105469 68.023438 663.84375 C 68.285156 663.578125 68.488281 663.273438 68.628906 662.933594 C 68.773438 662.589844 68.84375 662.230469 68.84375 661.859375 Z M 68.84375 661.859375 " fill-opacity="1" fill-rule="nonzero"/></g><path fill="#4281c8" d="M 118.542969 250.25 C 118.542969 249.960938 118.488281 249.679688 118.375 249.410156 C 118.265625 249.140625 118.105469 248.90625 117.898438 248.699219 C 117.695312 248.496094 117.457031 248.335938 117.1875 248.226562 C 116.921875 248.113281 116.640625 248.058594 116.351562 248.058594 C 116.058594 248.058594 115.78125 248.113281 115.511719 248.226562 C 115.242188 248.335938 115.007812 248.496094 114.800781 248.699219 C 114.597656 248.90625 114.4375 249.140625 114.328125 249.410156 C 114.214844 249.679688 114.160156 249.960938 114.160156 250.25 C 114.160156 250.539062 114.214844 250.820312 114.328125 251.089844 C 114.4375 251.355469 114.597656 251.59375 114.800781 251.800781 C 115.007812 252.003906 115.242188 252.164062 115.511719 252.273438 C 115.78125 252.386719 116.058594 252.441406 116.351562 252.441406 C 116.640625 252.441406 116.921875 252.386719 117.1875 252.273438 C 117.457031 252.164062 117.695312 252.003906 117.898438 251.800781 C 118.105469 251.59375 118.265625 251.355469 118.375 251.089844 C 118.488281 250.820312 118.542969 250.539062 118.542969 250.25 Z M 118.542969 250.25 " fill-opacity="1" fill-rule="nonzero"/><path fill="#4281c8" d="M 312.691406 275.234375 C 312.691406 274.863281 312.617188 274.503906 312.476562 274.160156 C 312.332031 273.816406 312.132812 273.515625 311.867188 273.25 C 311.605469 272.988281 311.300781 272.785156 310.957031 272.644531 C 310.613281 272.5 310.257812 272.429688 309.882812 272.429688 C 309.511719 272.429688 309.15625 272.5 308.8125 272.644531 C 308.46875 272.785156 308.164062 272.988281 307.902344 273.25 C 307.636719 273.515625 307.4375 273.816406 307.292969 274.160156 C 307.152344 274.503906 307.078125 274.863281 307.078125 275.234375 C 307.078125 275.609375 307.152344 275.964844 307.292969 276.308594 C 307.4375 276.652344 307.636719 276.957031 307.902344 277.21875 C 308.164062 277.480469 308.46875 277.683594 308.8125 277.828125 C 309.15625 277.96875 309.511719 278.039062 309.882812 278.039062 C 310.257812 278.039062 310.613281 277.96875 310.957031 277.828125 C 311.300781 277.683594 311.605469 277.480469 311.867188 277.21875 C 312.132812 276.957031 312.332031 276.652344 312.476562 276.308594 C 312.617188 275.964844 312.691406 275.609375 312.691406 275.234375 Z M 312.691406 275.234375 " fill-opacity="1" fill-rule="nonzero"/><g clip-path="url(#b384cb92f1)"><path fill="#4281c8" d="M 488.078125 72.542969 C 488.078125 72.195312 488.011719 71.859375 487.878906 71.539062 C 487.746094 71.214844 487.554688 70.929688 487.308594 70.683594 C 487.0625 70.4375 486.777344 70.246094 486.457031 70.113281 C 486.132812 69.980469 485.800781 69.914062 485.449219 69.914062 C 485.101562 69.914062 484.765625 69.980469 484.445312 70.113281 C 484.121094 70.246094 483.835938 70.4375 483.589844 70.683594 C 483.34375 70.929688 483.152344 71.214844 483.019531 71.539062 C 482.886719 71.859375 482.820312 72.195312 482.820312 72.542969 C 482.820312 72.890625 482.886719 73.226562 483.019531 73.550781 C 483.152344 73.871094 483.34375 74.15625 483.589844 74.402344 C 483.835938 74.648438 484.121094 74.839844 484.445312 74.972656 C 484.765625 75.105469 485.101562 75.171875 485.449219 75.171875 C 485.800781 75.171875 486.132812 75.105469 486.457031 74.972656 C 486.777344 74.839844 487.0625 74.648438 487.308594 74.402344 C 487.554688 74.15625 487.746094 73.871094 487.878906 73.550781 C 488.011719 73.226562 488.078125 72.890625 488.078125 72.542969 Z M 488.078125 72.542969 " fill-opacity="1" fill-rule="nonzero"/></g><g clip-path="url(#7c6c0506f9)"><g clip-path="url(#d97f54f1af)"><g clip-path="url(#b36fa819dc)"><path fill="#4281c8" d="M 611.40625 1467.898438 C 621.605469 1512.003906 661.3125 1532.191406 666.90625 1534.683594 C 693.953125 1546.707031 724.316406 1547.796875 752.40625 1539.171875 C 768.933594 1534.082031 784.902344 1527.140625 801.828125 1523.578125 C 855.714844 1512.148438 911.199219 1546.535156 963.726562 1519.1875 C 994.234375 1503.316406 1021.179688 1463.214844 1016.675781 1426.800781 C 1013.394531 1400.101562 990.609375 1384.695312 973.238281 1366.636719 C 943.625 1335.8125 936.382812 1293.246094 936.671875 1251.742188 C 936.832031 1229.90625 936.359375 1207.136719 926.535156 1187.628906 C 915.582031 1165.921875 888.570312 1154.59375 865.210938 1160.699219 C 837.984375 1167.796875 826.285156 1199.289062 799.601562 1210.253906 C 776.773438 1219.625 753.796875 1212.339844 730.257812 1215.917969 C 712.664062 1218.601562 696.585938 1228.378906 684.6875 1241.625 C 666.808594 1261.59375 659.535156 1283.742188 662.046875 1309.835938 C 664.066406 1330.75 669.484375 1352.367188 653.527344 1369.554688 C 646.714844 1376.894531 638.328125 1382.582031 631.273438 1389.714844 C 610.9375 1410.210938 605.039062 1440.285156 611.40625 1467.898438 Z M 611.40625 1467.898438 " fill-opacity="1" fill-rule="nonzero"/></g></g></g><path fill="#4281c8" d="M 525.324219 1346.546875 C 525.324219 1345.660156 525.230469 1344.78125 525.046875 1343.910156 C 524.863281 1343.042969 524.589844 1342.199219 524.230469 1341.378906 C 523.867188 1340.558594 523.425781 1339.78125 522.902344 1339.046875 C 522.378906 1338.308594 521.78125 1337.625 521.113281 1337 C 520.445312 1336.371094 519.71875 1335.8125 518.9375 1335.320312 C 518.152344 1334.828125 517.324219 1334.410156 516.449219 1334.074219 C 515.578125 1333.734375 514.679688 1333.476562 513.753906 1333.304688 C 512.828125 1333.132812 511.894531 1333.042969 510.949219 1333.042969 C 510.003906 1333.042969 509.070312 1333.132812 508.144531 1333.304688 C 507.21875 1333.476562 506.320312 1333.734375 505.449219 1334.074219 C 504.578125 1334.410156 503.746094 1334.828125 502.964844 1335.320312 C 502.179688 1335.8125 501.453125 1336.371094 500.785156 1337 C 500.117188 1337.625 499.523438 1338.308594 498.996094 1339.046875 C 498.472656 1339.78125 498.03125 1340.558594 497.667969 1341.378906 C 497.308594 1342.199219 497.035156 1343.042969 496.851562 1343.910156 C 496.667969 1344.78125 496.574219 1345.660156 496.574219 1346.546875 C 496.574219 1347.433594 496.667969 1348.308594 496.851562 1349.179688 C 497.035156 1350.050781 497.308594 1350.894531 497.667969 1351.710938 C 498.03125 1352.53125 498.472656 1353.308594 498.996094 1354.046875 C 499.523438 1354.785156 500.117188 1355.464844 500.785156 1356.09375 C 501.453125 1356.71875 502.179688 1357.277344 502.964844 1357.773438 C 503.746094 1358.265625 504.578125 1358.679688 505.449219 1359.019531 C 506.320312 1359.359375 507.21875 1359.613281 508.144531 1359.789062 C 509.070312 1359.960938 510.003906 1360.046875 510.949219 1360.046875 C 511.894531 1360.046875 512.828125 1359.960938 513.753906 1359.789062 C 514.679688 1359.613281 515.578125 1359.359375 516.449219 1359.019531 C 517.324219 1358.679688 518.152344 1358.265625 518.933594 1357.773438 C 519.71875 1357.277344 520.445312 1356.71875 521.113281 1356.09375 C 521.78125 1355.464844 522.378906 1354.785156 522.902344 1354.046875 C 523.425781 1353.308594 523.867188 1352.53125 524.230469 1351.710938 C 524.589844 1350.894531 524.863281 1350.050781 525.046875 1349.179688 C 525.230469 1348.308594 525.324219 1347.433594 525.324219 1346.546875 Z M 525.324219 1346.546875 " fill-opacity="1" fill-rule="nonzero"/><path fill="#4281c8" d="M 641.550781 1412.910156 C 641.550781 1412.457031 641.464844 1412.023438 641.289062 1411.601562 C 641.117188 1411.183594 640.867188 1410.816406 640.546875 1410.496094 C 640.226562 1410.171875 639.859375 1409.925781 639.441406 1409.753906 C 639.019531 1409.578125 638.585938 1409.492188 638.132812 1409.492188 C 637.679688 1409.492188 637.242188 1409.578125 636.824219 1409.753906 C 636.40625 1409.925781 636.035156 1410.171875 635.714844 1410.496094 C 635.394531 1410.816406 635.148438 1411.183594 634.972656 1411.601562 C 634.800781 1412.023438 634.714844 1412.457031 634.714844 1412.910156 C 634.714844 1413.363281 634.800781 1413.800781 634.972656 1414.21875 C 635.148438 1414.640625 635.394531 1415.007812 635.714844 1415.328125 C 636.035156 1415.648438 636.40625 1415.898438 636.824219 1416.070312 C 637.242188 1416.246094 637.679688 1416.332031 638.132812 1416.332031 C 638.585938 1416.332031 639.019531 1416.246094 639.441406 1416.070312 C 639.859375 1415.898438 640.226562 1415.648438 640.546875 1415.328125 C 640.867188 1415.007812 641.117188 1414.640625 641.289062 1414.21875 C 641.464844 1413.800781 641.550781 1413.363281 641.550781 1412.910156 Z M 641.550781 1412.910156 " fill-opacity="1" fill-rule="nonzero"/><path fill="#4281c8" d="M 581.945312 1161.386719 C 581.945312 1161.074219 581.886719 1160.773438 581.765625 1160.480469 C 581.648438 1160.191406 581.476562 1159.9375 581.253906 1159.714844 C 581.03125 1159.492188 580.777344 1159.320312 580.484375 1159.199219 C 580.195312 1159.082031 579.894531 1159.019531 579.582031 1159.019531 C 579.265625 1159.019531 578.964844 1159.082031 578.675781 1159.199219 C 578.386719 1159.320312 578.128906 1159.492188 577.90625 1159.714844 C 577.683594 1159.9375 577.515625 1160.191406 577.394531 1160.480469 C 577.273438 1160.773438 577.214844 1161.074219 577.214844 1161.386719 C 577.214844 1161.703125 577.273438 1162.003906 577.394531 1162.292969 C 577.515625 1162.582031 577.683594 1162.839844 577.90625 1163.0625 C 578.128906 1163.285156 578.382812 1163.453125 578.675781 1163.574219 C 578.964844 1163.695312 579.265625 1163.753906 579.582031 1163.753906 C 579.894531 1163.753906 580.195312 1163.695312 580.484375 1163.574219 C 580.777344 1163.453125 581.03125 1163.285156 581.253906 1163.0625 C 581.476562 1162.839844 581.648438 1162.582031 581.765625 1162.292969 C 581.886719 1162.003906 581.945312 1161.703125 581.945312 1161.386719 Z M 581.945312 1161.386719 " fill-opacity="1" fill-rule="nonzero"/><path fill="#4281c8" d="M 257.8125 1240.027344 C 257.8125 1239.632812 257.738281 1239.253906 257.585938 1238.886719 C 257.433594 1238.523438 257.21875 1238.199219 256.941406 1237.917969 C 256.660156 1237.640625 256.339844 1237.425781 255.972656 1237.273438 C 255.609375 1237.121094 255.226562 1237.046875 254.832031 1237.046875 C 254.4375 1237.046875 254.058594 1237.121094 253.691406 1237.273438 C 253.328125 1237.425781 253.003906 1237.640625 252.726562 1237.917969 C 252.445312 1238.199219 252.230469 1238.523438 252.078125 1238.886719 C 251.929688 1239.253906 251.851562 1239.632812 251.851562 1240.027344 C 251.851562 1240.421875 251.929688 1240.804688 252.078125 1241.167969 C 252.230469 1241.535156 252.445312 1241.855469 252.726562 1242.136719 C 253.003906 1242.414062 253.328125 1242.628906 253.691406 1242.78125 C 254.058594 1242.933594 254.4375 1243.007812 254.832031 1243.007812 C 255.226562 1243.007812 255.609375 1242.933594 255.972656 1242.78125 C 256.339844 1242.628906 256.660156 1242.414062 256.941406 1242.136719 C 257.21875 1241.855469 257.433594 1241.535156 257.585938 1241.167969 C 257.738281 1240.804688 257.8125 1240.421875 257.8125 1240.027344 Z M 257.8125 1240.027344 " fill-opacity="1" fill-rule="nonzero"/><path fill="#4281c8" d="M 171.914062 1043.734375 C 171.914062 1043.445312 171.859375 1043.164062 171.746094 1042.898438 C 171.636719 1042.628906 171.476562 1042.390625 171.273438 1042.1875 C 171.066406 1041.980469 170.832031 1041.820312 170.5625 1041.710938 C 170.292969 1041.597656 170.015625 1041.542969 169.722656 1041.542969 C 169.433594 1041.542969 169.152344 1041.597656 168.882812 1041.710938 C 168.617188 1041.820312 168.378906 1041.980469 168.171875 1042.1875 C 167.96875 1042.390625 167.808594 1042.628906 167.699219 1042.898438 C 167.585938 1043.164062 167.53125 1043.445312 167.53125 1043.734375 C 167.53125 1044.027344 167.585938 1044.304688 167.699219 1044.574219 C 167.808594 1044.84375 167.96875 1045.078125 168.171875 1045.285156 C 168.378906 1045.492188 168.617188 1045.648438 168.882812 1045.761719 C 169.152344 1045.871094 169.433594 1045.925781 169.722656 1045.925781 C 170.015625 1045.925781 170.292969 1045.871094 170.5625 1045.761719 C 170.832031 1045.648438 171.066406 1045.492188 171.273438 1045.285156 C 171.476562 1045.078125 171.636719 1044.84375 171.746094 1044.574219 C 171.859375 1044.304688 171.914062 1044.027344 171.914062 1043.734375 Z M 171.914062 1043.734375 " fill-opacity="1" fill-rule="nonzero"/><path fill="#4281c8" d="M 366.0625 1068.722656 C 366.0625 1068.347656 365.992188 1067.992188 365.847656 1067.648438 C 365.707031 1067.304688 365.503906 1067 365.242188 1066.738281 C 364.976562 1066.472656 364.675781 1066.273438 364.332031 1066.128906 C 363.988281 1065.988281 363.628906 1065.914062 363.257812 1065.914062 C 362.886719 1065.914062 362.527344 1065.988281 362.183594 1066.128906 C 361.839844 1066.273438 361.535156 1066.472656 361.273438 1066.738281 C 361.011719 1067 360.808594 1067.304688 360.664062 1067.648438 C 360.523438 1067.992188 360.453125 1068.347656 360.453125 1068.722656 C 360.453125 1069.09375 360.523438 1069.453125 360.664062 1069.796875 C 360.808594 1070.136719 361.011719 1070.441406 361.273438 1070.703125 C 361.535156 1070.96875 361.839844 1071.171875 362.183594 1071.3125 C 362.527344 1071.457031 362.886719 1071.527344 363.257812 1071.527344 C 363.628906 1071.527344 363.988281 1071.457031 364.332031 1071.3125 C 364.675781 1071.171875 364.976562 1070.96875 365.242188 1070.703125 C 365.503906 1070.441406 365.707031 1070.136719 365.847656 1069.796875 C 365.992188 1069.453125 366.0625 1069.09375 366.0625 1068.722656 Z M 366.0625 1068.722656 " fill-opacity="1" fill-rule="nonzero"/><g clip-path="url(#4026c095fa)"><path fill="#4281c8" d="M 541.453125 866.03125 C 541.453125 865.679688 541.386719 865.34375 541.25 865.023438 C 541.117188 864.699219 540.929688 864.417969 540.683594 864.167969 C 540.433594 863.921875 540.152344 863.734375 539.828125 863.597656 C 539.507812 863.464844 539.171875 863.398438 538.824219 863.398438 C 538.472656 863.398438 538.136719 863.464844 537.816406 863.597656 C 537.492188 863.734375 537.210938 863.921875 536.964844 864.167969 C 536.714844 864.417969 536.527344 864.699219 536.394531 865.023438 C 536.257812 865.34375 536.191406 865.679688 536.191406 866.03125 C 536.191406 866.378906 536.257812 866.714844 536.394531 867.035156 C 536.527344 867.359375 536.714844 867.640625 536.964844 867.890625 C 537.210938 868.136719 537.492188 868.324219 537.816406 868.460938 C 538.136719 868.59375 538.472656 868.660156 538.824219 868.660156 C 539.171875 868.660156 539.507812 868.59375 539.828125 868.460938 C 540.152344 868.324219 540.433594 868.136719 540.683594 867.890625 C 540.929688 867.640625 541.117188 867.359375 541.25 867.035156 C 541.386719 866.714844 541.453125 866.378906 541.453125 866.03125 Z M 541.453125 866.03125 " fill-opacity="1" fill-rule="nonzero"/></g></svg>